<?xml version="1.0" encoding="utf-8"?>
<!-- Generator: Adobe Illustrator 25.4.1, SVG Export Plug-In . SVG Version: 6.00 Build 0)  -->
<svg version="1.1" id="Layer_1" xmlns="http://www.w3.org/2000/svg" xmlns:xlink="http://www.w3.org/1999/xlink" x="0px" y="0px"
	 viewBox="0 0 800 208.1" style="enable-background:new 0 0 800 208.1;" xml:space="preserve">
<style type="text/css">
	.st0{fill:#D2AA4C;}
</style>
<g>
	<g>
		<g>
			<path class="st0" d="M267.8,87.6h7l12.5,21.2h11.6l-14.3-22.1c4-0.5,7.1-2,9.2-4.5s3.2-5.5,3.2-9.1c0-2.8-0.6-5.2-1.7-7
				c-1.1-1.8-2.6-3.3-4.5-4.4c-1.9-1.1-4-1.8-6.4-2.3c-2.4-0.4-4.9-0.7-7.5-0.7h-18.7v50.1h9.6V87.6z M267.8,66.4h8.3
				c1.2,0,2.5,0.1,3.8,0.2c1.3,0.1,2.5,0.4,3.5,0.9c1.1,0.4,1.9,1.1,2.6,2c0.7,0.9,1,2.1,1,3.5c0,1.7-0.4,2.9-1.1,3.9
				c-0.7,0.9-1.6,1.6-2.8,2.1c-1.1,0.4-2.4,0.7-3.8,0.8c-1.4,0.1-2.7,0.2-4.1,0.2h-7.5V66.4z"/>
			<path class="st0" d="M306,107.7c0.6,0.5,1.2,0.9,1.9,1.1c0.7,0.3,1.5,0.4,2.3,0.4c1.7,0,3.1-0.5,4.3-1.6s1.8-2.4,1.8-3.9
				c0-1.5-0.6-2.8-1.8-3.8c-1.2-1-2.6-1.6-4.3-1.6c-1.7,0-3.1,0.5-4.3,1.6c-1.2,1.1-1.8,2.4-1.8,3.9c0,0.8,0.2,1.5,0.5,2.1
				C305,106.7,305.4,107.2,306,107.7z"/>
			<path class="st0" d="M372.4,94.9c1.8-3.1,2.6-6.9,2.6-11.1c0-4.2-0.8-7.9-2.3-11.1c-1.5-3.1-3.6-5.7-6.1-7.8
				c-2.5-2.1-5.5-3.6-8.8-4.6c-3.3-1-6.7-1.5-10.3-1.5h-21.2v50.1h20.1c3.2,0,6.6-0.5,9.9-1.5c3.4-1,6.4-2.5,9.2-4.6
				C368.4,100.7,370.6,98.1,372.4,94.9z M363.3,91.6c-1.1,2.1-2.7,3.9-4.7,5.2c-2,1.3-4.3,2.3-7,3s-5.5,1-8.5,1H336v-34h8.8
				c2.9,0,5.6,0.3,8.1,1c2.5,0.6,4.6,1.6,6.4,3c1.8,1.3,3.2,3.1,4.2,5.3c1,2.2,1.5,4.8,1.5,7.8C365,86.9,364.4,89.5,363.3,91.6z"/>
			<path class="st0" d="M382.2,98.4c-1.7,0-3.1,0.5-4.3,1.6c-1.2,1.1-1.8,2.4-1.8,3.9c0,0.8,0.2,1.5,0.5,2.1
				c0.3,0.7,0.8,1.2,1.3,1.7c0.6,0.5,1.2,0.9,1.9,1.1c0.7,0.3,1.5,0.4,2.3,0.4c1.7,0,3.1-0.5,4.3-1.6s1.8-2.4,1.8-3.9
				c0-1.5-0.6-2.8-1.8-3.8C385.2,98.9,383.8,98.4,382.2,98.4z"/>
			<path class="st0" d="M431.7,105.8c1.9-1.1,3.4-2.6,4.6-4.4c1.2-1.8,1.7-4.1,1.7-6.8c0-1.6-0.3-3.1-0.9-4.5
				c-0.6-1.4-1.4-2.6-2.4-3.7c-1-1.1-2.2-1.9-3.7-2.6c-1.4-0.7-3-1.1-4.7-1.3v-0.1c2.8-0.8,5-2.1,6.8-4c1.7-1.8,2.6-4.2,2.6-7
				c0-2.3-0.5-4.2-1.4-5.8c-1-1.6-2.2-2.9-3.8-3.9c-1.5-1-3.3-1.7-5.3-2.2c-2-0.4-4-0.7-6-0.7h-21v50.1h19.4c2.5,0,5-0.2,7.5-0.7
				C427.6,107.7,429.8,106.9,431.7,105.8z M407.9,66.4h7.9c3.7,0,6.3,0.5,8,1.6c1.6,1.1,2.5,2.7,2.5,4.8c0,1.9-0.8,3.4-2.4,4.6
				c-1.6,1.2-4,1.7-7.2,1.7h-8.8V66.4z M420.6,101c-1.4,0.1-2.7,0.2-3.9,0.2h-8.8V86.8h9.2c3.9,0,6.8,0.5,8.6,1.6
				c1.9,1,2.8,2.9,2.8,5.5c0,1.7-0.4,3-1.1,3.9c-0.8,1-1.7,1.7-2.9,2.2C423.3,100.5,422,100.8,420.6,101z"/>
			<path class="st0" d="M480.5,82.2c2.2-2.5,3.2-5.5,3.2-9.1c0-2.8-0.6-5.2-1.7-7c-1.1-1.8-2.6-3.3-4.5-4.4c-1.9-1.1-4-1.8-6.4-2.3
				c-2.4-0.4-4.9-0.7-7.5-0.7h-18.7v50.1h9.6V87.6h7l12.5,21.2h11.6l-14.3-22.1C475.3,86.2,478.4,84.7,480.5,82.2z M466.1,79.8
				c-1.4,0.1-2.7,0.2-4.1,0.2h-7.5V66.4h8.3c1.2,0,2.5,0.1,3.8,0.2c1.3,0.1,2.5,0.4,3.5,0.9c1.1,0.4,1.9,1.1,2.6,2
				c0.7,0.9,1,2.1,1,3.5c0,1.7-0.4,2.9-1.1,3.9c-0.7,0.9-1.6,1.6-2.8,2.1C468.7,79.4,467.5,79.7,466.1,79.8z"/>
			<path class="st0" d="M543.8,94.4c1.4-3.2,2.1-6.8,2.1-10.7c0-4-0.7-7.6-2.1-10.9c-1.4-3.3-3.4-6-5.9-8.3
				c-2.5-2.3-5.6-4.1-9.1-5.3c-3.5-1.2-7.4-1.8-11.6-1.7c-4.2,0-8,0.6-11.5,1.9c-3.5,1.3-6.5,3-9,5.3c-2.5,2.3-4.5,5.1-5.9,8.4
				c-1.4,3.3-2.1,6.9-2.1,10.9c0,3.9,0.7,7.5,2.1,10.7c1.4,3.2,3.4,6,5.9,8.2c2.5,2.3,5.5,4.1,9,5.3c3.5,1.3,7.3,1.9,11.5,1.9
				c4.2,0,8.1-0.7,11.6-2c3.5-1.3,6.5-3.1,9.1-5.4C540.5,100.4,542.4,97.6,543.8,94.4z M534.6,90.9c-0.9,2.3-2.1,4.2-3.8,5.9
				s-3.6,2.9-5.9,3.9c-2.3,0.9-4.8,1.4-7.6,1.4c-2.8,0-5.3-0.5-7.6-1.4c-2.3-0.9-4.2-2.2-5.8-3.9c-1.6-1.7-2.9-3.6-3.8-5.9
				c-0.9-2.3-1.3-4.7-1.3-7.4c0-2.5,0.4-4.8,1.3-7c0.9-2.2,2.1-4.1,3.8-5.7c1.6-1.6,3.6-2.9,5.8-3.8c2.3-0.9,4.8-1.4,7.6-1.4
				c2.8,0,5.3,0.5,7.6,1.4c2.3,0.9,4.2,2.2,5.9,3.8c1.6,1.6,2.9,3.5,3.8,5.7c0.9,2.2,1.3,4.5,1.3,7
				C535.9,86.1,535.5,88.6,534.6,90.9z"/>
			<polygon class="st0" points="543.9,66.8 560.4,66.8 560.4,108.8 570,108.8 570,66.8 586.5,66.8 586.5,58.7 543.9,58.7 			"/>
			<polygon class="st0" points="626.7,78.7 601.5,78.7 601.5,58.7 591.9,58.7 591.9,108.8 601.5,108.8 601.5,86.8 626.7,86.8 
				626.7,108.8 636.3,108.8 636.3,58.7 626.7,58.7 			"/>
			<polygon class="st0" points="653.7,87.2 678.5,87.2 678.5,79.1 653.7,79.1 653.7,66.8 679.8,66.8 679.8,58.7 644.1,58.7 
				644.1,108.8 681.2,108.8 681.2,100.8 653.7,100.8 			"/>
			<path class="st0" d="M697.6,87.6h7l12.5,21.2h11.6l-14.3-22.1c4-0.5,7.1-2,9.2-4.5c2.2-2.5,3.2-5.5,3.2-9.1c0-2.8-0.6-5.2-1.7-7
				c-1.1-1.8-2.6-3.3-4.5-4.4c-1.9-1.1-4-1.8-6.4-2.3c-2.4-0.4-4.9-0.7-7.5-0.7H688v50.1h9.6V87.6z M697.6,66.4h8.3
				c1.2,0,2.5,0.1,3.8,0.2c1.3,0.1,2.5,0.4,3.5,0.9c1.1,0.4,1.9,1.1,2.6,2c0.7,0.9,1,2.1,1,3.5c0,1.7-0.4,2.9-1.1,3.9
				c-0.7,0.9-1.6,1.6-2.8,2.1c-1.1,0.4-2.4,0.7-3.8,0.8S706.4,80,705,80h-7.5V66.4z"/>
			<path class="st0" d="M755.4,100.4c-0.9,0.6-1.9,1-3,1.3c-1.1,0.3-2.2,0.4-3.3,0.4c-2.1,0-4.1-0.5-6-1.4c-1.9-0.9-3.4-2.2-4.6-3.9
				l-7.2,6.5c2.2,2.5,4.9,4.2,8,5.2c3.1,1,6.3,1.6,9.7,1.6c2.6,0,5.1-0.3,7.5-1c2.4-0.7,4.5-1.6,6.3-3c1.8-1.3,3.2-3,4.3-5
				c1.1-2,1.6-4.4,1.6-7c0-3-0.6-5.4-1.9-7.1c-1.3-1.8-2.8-3.2-4.7-4.3c-1.9-1.1-3.9-1.9-6.2-2.5c-2.2-0.6-4.3-1.3-6.2-1.9
				c-1.9-0.7-3.4-1.4-4.7-2.3c-1.3-0.9-1.9-2.2-1.9-3.9c0-1.1,0.3-2.1,0.8-2.9c0.5-0.8,1.2-1.5,2-2c0.8-0.5,1.8-0.9,2.8-1.1
				c1-0.2,2.1-0.4,3.2-0.4c1.9,0,3.7,0.3,5.4,1c1.7,0.6,3.1,1.6,4.1,3l7-6.9c-2.1-1.8-4.5-3.2-7.2-4c-2.7-0.8-5.4-1.2-8.3-1.2
				c-2.5,0-4.9,0.3-7.3,0.9c-2.4,0.6-4.5,1.5-6.4,2.8c-1.9,1.3-3.3,2.8-4.5,4.7c-1.1,1.9-1.7,4.1-1.7,6.7c0,3,0.6,5.3,1.9,7.1
				c1.3,1.8,2.8,3.2,4.7,4.2c1.9,1.1,3.9,1.9,6.2,2.5c2.2,0.6,4.3,1.3,6.2,1.9c1.9,0.7,3.5,1.5,4.7,2.5c1.3,1,1.9,2.4,1.9,4.2
				c0,1.1-0.3,2.1-0.8,3C757,99.1,756.3,99.8,755.4,100.4z"/>
			<path class="st0" d="M375.5,137.1c-0.6-0.7-1.5-1.3-2.6-1.8c-1.1-0.5-2.5-0.7-4.3-0.7h-9.5v26.9h3.7v-11.9h5.8
				c1.7,0,3.1-0.2,4.3-0.7c1.1-0.5,2-1.1,2.6-1.8c0.6-0.7,1.1-1.5,1.4-2.4c0.3-0.9,0.4-1.8,0.4-2.6c0-0.8-0.1-1.7-0.4-2.6
				C376.6,138.6,376.1,137.8,375.5,137.1z M372.9,144.3c-0.3,0.6-0.8,1-1.3,1.3c-0.5,0.3-1.2,0.5-1.9,0.6c-0.7,0.1-1.4,0.2-2.1,0.2
				h-4.8v-8.7h4.8c0.7,0,1.4,0.1,2.1,0.2c0.7,0.1,1.3,0.3,1.9,0.6c0.5,0.3,1,0.7,1.3,1.3c0.3,0.6,0.5,1.3,0.5,2.2
				C373.3,143,373.2,143.8,372.9,144.3z"/>
			<path class="st0" d="M405.8,148.4c0.8-0.4,1.5-1,2.1-1.6c0.6-0.6,1-1.4,1.3-2.2c0.3-0.8,0.5-1.6,0.5-2.5c0-0.8-0.1-1.7-0.4-2.6
				c-0.3-0.9-0.7-1.7-1.4-2.4c-0.6-0.7-1.5-1.3-2.6-1.8c-1.1-0.5-2.5-0.7-4.3-0.7h-9.5v26.9h3.7v-11.9h4.1l6.8,11.9h4.6l-7.6-12.3
				C404.1,149.1,405,148.8,405.8,148.4z M400,146.4h-4.8v-8.7h4.8c0.7,0,1.4,0.1,2.1,0.2c0.7,0.1,1.3,0.3,1.9,0.6
				c0.5,0.3,1,0.7,1.3,1.3c0.3,0.6,0.5,1.3,0.5,2.2c0,0.9-0.2,1.7-0.5,2.2c-0.3,0.6-0.8,1-1.3,1.3c-0.5,0.3-1.2,0.5-1.9,0.6
				C401.4,146.4,400.7,146.4,400,146.4z"/>
			<path class="st0" d="M447.2,138c-1.2-1.3-2.7-2.3-4.4-3c-1.7-0.7-3.6-1.1-5.7-1.1c-2.1,0-3.9,0.4-5.7,1.1c-1.7,0.7-3.2,1.7-4.4,3
				c-1.2,1.3-2.2,2.8-2.9,4.5c-0.7,1.7-1,3.6-1,5.6s0.3,3.9,1,5.6c0.7,1.7,1.7,3.2,2.9,4.5c1.2,1.3,2.7,2.3,4.4,3
				c1.7,0.7,3.6,1.1,5.7,1.1c2.1,0,3.9-0.4,5.7-1.1c1.7-0.7,3.2-1.7,4.4-3c1.2-1.3,2.2-2.8,2.9-4.5c0.7-1.7,1-3.6,1-5.6
				s-0.3-3.9-1-5.6C449.4,140.7,448.4,139.2,447.2,138z M446.5,152.2c-0.5,1.3-1.2,2.4-2.1,3.4c-0.9,1-2,1.7-3.2,2.3
				c-1.2,0.6-2.6,0.9-4.2,0.9c-1.5,0-2.9-0.3-4.2-0.9c-1.2-0.6-2.3-1.3-3.2-2.3c-0.9-1-1.6-2.1-2.1-3.4c-0.5-1.3-0.7-2.7-0.7-4.2
				c0-1.5,0.2-2.9,0.7-4.2c0.5-1.3,1.2-2.4,2.1-3.4c0.9-1,2-1.7,3.2-2.3c1.2-0.6,2.6-0.9,4.2-0.9c1.5,0,2.9,0.3,4.2,0.9
				c1.2,0.6,2.3,1.3,3.2,2.3c0.9,1,1.6,2.1,2.1,3.4c0.5,1.3,0.7,2.7,0.7,4.2C447.2,149.5,447,150.9,446.5,152.2z"/>
			<path class="st0" d="M482.6,137.1c-0.6-0.7-1.5-1.3-2.6-1.8c-1.1-0.5-2.5-0.7-4.3-0.7h-9.5v26.9h3.7v-11.9h5.8
				c1.7,0,3.1-0.2,4.3-0.7c1.1-0.5,2-1.1,2.6-1.8c0.6-0.7,1.1-1.5,1.4-2.4c0.3-0.9,0.4-1.8,0.4-2.6c0-0.8-0.1-1.7-0.4-2.6
				C483.7,138.6,483.3,137.8,482.6,137.1z M480,144.3c-0.3,0.6-0.8,1-1.3,1.3c-0.5,0.3-1.2,0.5-1.9,0.6c-0.7,0.1-1.4,0.2-2.1,0.2
				h-4.8v-8.7h4.8c0.7,0,1.4,0.1,2.1,0.2c0.7,0.1,1.3,0.3,1.9,0.6c0.5,0.3,1,0.7,1.3,1.3c0.3,0.6,0.5,1.3,0.5,2.2
				C480.5,143,480.3,143.8,480,144.3z"/>
			<polygon class="st0" points="502.4,149.4 515.1,149.4 515.1,146 502.4,146 502.4,138 516.1,138 516.1,134.6 498.7,134.6 
				498.7,161.5 516.8,161.5 516.8,158.1 502.4,158.1 			"/>
			<path class="st0" d="M546.1,148.4c0.8-0.4,1.5-1,2.1-1.6c0.6-0.6,1-1.4,1.3-2.2c0.3-0.8,0.5-1.6,0.5-2.5c0-0.8-0.1-1.7-0.4-2.6
				c-0.3-0.9-0.7-1.7-1.4-2.4c-0.6-0.7-1.5-1.3-2.6-1.8c-1.1-0.5-2.5-0.7-4.3-0.7h-9.5v26.9h3.7v-11.9h4.1l6.8,11.9h4.6l-7.6-12.3
				C544.3,149.1,545.3,148.8,546.1,148.4z M540.3,146.4h-4.8v-8.7h4.8c0.7,0,1.4,0.1,2.1,0.2c0.7,0.1,1.3,0.3,1.9,0.6
				c0.5,0.3,1,0.7,1.3,1.3c0.3,0.6,0.5,1.3,0.5,2.2c0,0.9-0.2,1.7-0.5,2.2c-0.3,0.6-0.8,1-1.3,1.3c-0.5,0.3-1.2,0.5-1.9,0.6
				C541.7,146.4,541,146.4,540.3,146.4z"/>
			<polygon class="st0" points="561.9,138 570.6,138 570.6,161.5 574.3,161.5 574.3,138 582.9,138 582.9,134.6 561.9,134.6 			"/>
			<rect x="596.7" y="134.6" class="st0" width="3.7" height="26.9"/>
			<polygon class="st0" points="620.8,149.4 633.6,149.4 633.6,146 620.8,146 620.8,138 634.6,138 634.6,134.6 617.2,134.6 
				617.2,161.5 635.2,161.5 635.2,158.1 620.8,158.1 			"/>
			<path class="st0" d="M662.6,147.8c-1-0.5-2-1-3.2-1.3c-1.2-0.3-2.2-0.6-3.2-1c-1-0.4-1.8-0.9-2.5-1.5c-0.7-0.6-1-1.5-1-2.6
				c0-0.4,0.1-0.8,0.2-1.3c0.2-0.5,0.4-0.9,0.9-1.3c0.4-0.4,0.9-0.8,1.6-1c0.7-0.3,1.5-0.4,2.5-0.4c1.1,0,2,0.2,2.9,0.6
				c0.8,0.4,1.5,1,1.9,1.7l3-2.7c-1-1.2-2.2-2.1-3.5-2.5c-1.3-0.4-2.8-0.6-4.2-0.6c-1.6,0-3,0.2-4.2,0.7c-1.2,0.5-2.1,1.1-2.8,1.8
				c-0.7,0.7-1.3,1.5-1.6,2.4c-0.3,0.9-0.5,1.7-0.5,2.5c0,1.8,0.3,3.1,1,4.2c0.7,1,1.5,1.8,2.5,2.5s2,1.1,3.2,1.4
				c1.2,0.3,2.2,0.7,3.2,1.1c1,0.4,1.8,0.8,2.5,1.4c0.7,0.5,1,1.3,1,2.4c0,0.7-0.2,1.4-0.5,1.9c-0.3,0.6-0.8,1-1.3,1.4
				c-0.5,0.4-1.1,0.7-1.7,0.9c-0.6,0.2-1.3,0.3-1.9,0.3c-1.1,0-2.1-0.2-3.2-0.7c-1-0.5-1.9-1.2-2.5-2.2l-3,2.6
				c0.9,1.3,2.1,2.2,3.7,2.8c1.5,0.6,3.2,0.9,4.9,0.9c1.3,0,2.5-0.2,3.7-0.6c1.1-0.4,2.1-0.9,3-1.6c0.8-0.7,1.5-1.6,2-2.6
				c0.5-1,0.7-2.2,0.7-3.5c0-1.6-0.3-2.9-1-3.8C664.4,149.1,663.6,148.4,662.6,147.8z"/>
			<rect x="257.9" y="145.7" class="st0" width="75.8" height="4.6"/>
			<rect x="692.2" y="145.7" class="st0" width="75.8" height="4.6"/>
		</g>
		<g>
			<path class="st0" d="M788,41.7c-6.6,0-12,5.4-12,12c0,6.6,5.4,12,12,12c6.6,0,12-5.4,12-12C800,47,794.6,41.7,788,41.7z
				 M788,64.2c-5.8,0-10.6-4.7-10.6-10.6s4.7-10.6,10.6-10.6s10.6,4.7,10.6,10.6S793.9,64.2,788,64.2z"/>
			<path class="st0" d="M790.6,54.2c-0.2-0.2-0.6-0.4-1-0.6c1.2-0.2,2.1-0.6,2.7-1.2c0.6-0.6,0.9-1.4,0.9-2.2c0-0.7-0.2-1.3-0.5-1.9
				s-0.8-1-1.4-1.2c-0.6-0.2-1.4-0.3-2.5-0.3h-5.5v12.5h1.7v-5.5h1.9c0.4,0,0.7,0,0.9,0.1c0.3,0.1,0.5,0.2,0.8,0.3
				c0.2,0.2,0.5,0.4,0.8,0.8c0.3,0.4,0.7,1,1.2,1.7l1.7,2.6h2.1l-2.2-3.4C791.5,55.2,791.1,54.6,790.6,54.2z M788.3,52.3h-3.6v-4.1
				h4c0.9,0,1.6,0.2,2,0.6c0.4,0.4,0.6,0.9,0.6,1.5c0,0.4-0.1,0.8-0.3,1.1c-0.2,0.3-0.5,0.6-1,0.7C789.7,52.2,789.1,52.3,788.3,52.3
				z"/>
		</g>
	</g>
	<g>
		<path class="st0" d="M6.3,12.6h18.8c3.5,0,6.3-2.8,6.3-6.3S28.6,0,25.1,0H6.3C2.8,0,0,2.8,0,6.3S2.8,12.6,6.3,12.6z"/>
		<path class="st0" d="M151.6,169.7c1.2,0,2.5-0.4,3.6-1.1c2.3-1.6,4.4-3.5,4.6-3.7c7.1-6.5,12.9-14.2,17.4-22.7
			c1.6-3.1,0.4-6.9-2.7-8.5c-3.1-1.6-6.9-0.4-8.5,2.7c-3.8,7.2-8.7,13.7-14.7,19.2c0,0-1.7,1.6-3.3,2.7c-2.8,2-3.5,5.9-1.6,8.8
			C147.7,168.8,149.6,169.7,151.6,169.7z"/>
		<path class="st0" d="M183.6,126c2-7.1,3-14.5,3-22c0-26.9-13.1-52.2-35.1-67.6c-2.8-2-6.8-1.3-8.8,1.5c-2,2.8-1.3,6.8,1.5,8.8
			c18.7,13.1,29.8,34.6,29.8,57.4c0,6.3-0.8,12.6-2.5,18.6c-0.9,3.3,1,6.8,4.4,7.7c0.6,0.2,1.1,0.2,1.7,0.2
			C180.3,130.6,182.8,128.8,183.6,126z"/>
		<path class="st0" d="M6.3,34h97.6c9.5,0,18.6,1.9,27.3,5.5c0.8,0.3,1.6,0.5,2.4,0.5c2.5,0,4.8-1.4,5.8-3.8
			c1.4-3.2-0.1-6.9-3.3-8.2c-10.2-4.3-21-6.5-32.2-6.5H6.3c-3.5,0-6.3,2.8-6.3,6.3S2.8,34,6.3,34z"/>
		<path class="st0" d="M136.2,154.7c1.4,0,2.8-0.5,4-1.4l4.4-3.6c12.9-11.6,20.3-28.2,20.3-45.6c0-33.8-27.5-61.3-61.3-61.3H88.3
			c-3.5,0-6.3,2.8-6.3,6.3s2.8,6.3,6.3,6.3h15.3c26.9,0,48.7,21.8,48.7,48.7c0,13.8-5.9,27-15.9,36l-4.2,3.4
			c-2.7,2.2-3.1,6.2-0.9,8.8C132.6,153.9,134.4,154.7,136.2,154.7z"/>
		<path class="st0" d="M6.3,55.4h66.4c3.5,0,6.3-2.8,6.3-6.3s-2.8-6.3-6.3-6.3H6.3c-3.5,0-6.3,2.8-6.3,6.3S2.8,55.4,6.3,55.4z"/>
		<path class="st0" d="M6.3,122.6h34l81,81c1.2,1.2,2.8,1.8,4.4,1.8c1.6,0,3.2-0.6,4.4-1.8c2.5-2.5,2.5-6.4,0-8.9l-82.9-82.9
			c-1.2-1.2-2.8-1.8-4.4-1.8H6.3c-3.5,0-6.3,2.8-6.3,6.3S2.8,122.6,6.3,122.6z"/>
		<path class="st0" d="M6.3,76.7h14.9c3.5,0,6.3-2.8,6.3-6.3c0-3.5-2.8-6.3-6.3-6.3H6.3C2.8,64.2,0,67,0,70.4
			C0,73.9,2.8,76.7,6.3,76.7z"/>
		<path class="st0" d="M6.3,98.1h97c3.3,0,5.9,2.7,5.9,5.9c0,3.3-2.7,5.9-5.9,5.9h-30c-2.5,0-4.8,1.5-5.8,3.9
			c-1,2.4-0.4,5.1,1.4,6.9l72.4,72.4c1.2,1.2,2.8,1.8,4.4,1.8c1.6,0,3.2-0.6,4.4-1.8c2.5-2.5,2.5-6.4,0-8.9l-61.7-61.7h14.8
			c10.2,0,18.5-8.3,18.5-18.5s-8.3-18.5-18.5-18.5h-97c-3.5,0-6.3,2.8-6.3,6.3C0,95.3,2.8,98.1,6.3,98.1z"/>
		<path class="st0" d="M6.3,165.3h15.5l40.8,40.9c1.2,1.2,2.8,1.8,4.5,1.8c1.6,0,3.2-0.6,4.4-1.8c2.5-2.5,2.5-6.4,0-8.9l-42.7-42.8
			c-1.2-1.2-2.8-1.8-4.5-1.8H6.3c-3.5,0-6.3,2.8-6.3,6.3S2.8,165.3,6.3,165.3z"/>
		<path class="st0" d="M75,179.3c-2.5,2.5-2.5,6.4,0,8.9l18.1,18.1c1.2,1.2,2.8,1.8,4.5,1.8c1.6,0,3.2-0.6,4.4-1.8
			c2.5-2.5,2.5-6.4,0-8.9l-18.1-18.1C81.5,176.8,77.5,176.8,75,179.3z"/>
		<path class="st0" d="M6.3,144h6.6h18L64,177.2c1.2,1.2,2.8,1.8,4.5,1.8c1.6,0,3.2-0.6,4.4-1.8c2.5-2.5,2.5-6.4,0-8.9l-35-35.1
			c-1.2-1.2-2.8-1.8-4.5-1.8H12.9H6.3c-3.5,0-6.3,2.8-6.3,6.3S2.8,144,6.3,144z"/>
		<path class="st0" d="M6.3,208.1h3c3.5,0,6.3-2.8,6.3-6.3c0-3.5-2.8-6.3-6.3-6.3h-3c-3.5,0-6.3,2.8-6.3,6.3
			C0,205.3,2.8,208.1,6.3,208.1z"/>
		<path class="st0" d="M6.3,186.7h7.9l19,19.5c1.2,1.3,2.9,1.9,4.5,1.9c1.6,0,3.2-0.6,4.4-1.8c2.5-2.4,2.5-6.4,0.1-8.9L21.4,176
			c-1.2-1.2-2.8-1.9-4.5-1.9H6.3c-3.5,0-6.3,2.8-6.3,6.3C0,183.9,2.8,186.7,6.3,186.7z"/>
		<path class="st0" d="M202,104.5c-3.5-0.3-6.5,2.4-6.7,5.8c-1.6,23-11.7,44.5-28.3,60.1c0,0-2.2,1.8-4.1,3.3
			c-2.7,2.1-3.2,6.1-1.1,8.8c1.2,1.6,3.1,2.4,5,2.4c1.4,0,2.7-0.4,3.9-1.3c2-1.6,4.4-3.5,4.7-3.8c19.2-18.1,30.8-42.4,32.6-68.6
			C208.1,107.8,205.4,104.8,202,104.5z"/>
		<path class="st0" d="M40.6,12.6H104c47.4,0,86.5,35.5,91,82.6c0.3,3.3,3.1,5.7,6.3,5.7c0.2,0,0.4,0,0.6,0c3.5-0.3,6-3.4,5.7-6.9
			C202.4,40.4,157.9,0,104,0H40.6c-3.5,0-6.3,2.8-6.3,6.3S37.1,12.6,40.6,12.6z"/>
		<path class="st0" d="M135.8,101.1c0.6,0,1.2-0.1,1.7-0.2c3.3-1,5.3-4.4,4.3-7.8c-4.9-17-20.7-28.9-38.4-28.9H36.7
			c-3.5,0-6.3,2.8-6.3,6.3c0,3.5,2.8,6.3,6.3,6.3h66.8c12.1,0,22.9,8.1,26.3,19.8C130.5,99.3,133.1,101.1,135.8,101.1z"/>
		<path class="st0" d="M117.5,127.5c-3,1.8-3.9,5.7-2.2,8.6c1.2,2,3.3,3.1,5.4,3.1c1.1,0,2.2-0.3,3.2-0.9c8.7-5.2,15-13.5,17.9-23.5
			l0.7-2.8c0.8-3.4-1.3-6.8-4.7-7.6c-3.4-0.8-6.8,1.3-7.6,4.7l-0.6,2.5C127.8,118.3,123.5,124,117.5,127.5z"/>
	</g>
</g>
</svg>
