<?xml version="1.0" encoding="UTF-8"?>
<svg version="1.1" xmlns="http://www.w3.org/2000/svg" width="512" height="512">
<path d="M0 0 C2.78083157 -0.00408588 5.56164621 -0.01259135 8.34246826 -0.02079773 C15.04579063 -0.03780141 21.74901853 -0.03886495 28.45235682 -0.03358483 C33.91065061 -0.02950814 39.36891694 -0.03102762 44.82720947 -0.03633308 C46.00193146 -0.03745572 46.00193146 -0.03745572 47.20038521 -0.03860103 C48.79238558 -0.04013283 50.38438595 -0.04167118 51.97638631 -0.043216 C66.83058187 -0.05687351 81.68472444 -0.05155047 96.53891873 -0.04003078 C110.06786577 -0.0300985 123.59667604 -0.04305108 137.12560201 -0.06696498 C151.09235158 -0.09146269 165.05903774 -0.10093823 179.02580833 -0.09431225 C186.83709064 -0.0908445 194.64826789 -0.09288863 202.45953369 -0.11056328 C209.10626427 -0.12541954 215.75281572 -0.12574802 222.39954329 -0.10849237 C225.77709304 -0.10008975 229.15406784 -0.09980705 232.5316391 -0.11314392 C269.78256309 -0.24885949 303.77386811 5.88304248 331.8359375 31.94702148 C353.62407016 53.63172946 365.33580075 84.60580259 365.4477551 115.2047199 C365.44688862 116.3364235 365.44602213 117.46812711 365.44512939 118.63412476 C365.44958608 120.46292614 365.44958608 120.46292614 365.4541328 122.32867301 C365.4612831 125.69633498 365.46398977 129.06394591 365.46473026 132.43161178 C365.46658899 136.07057367 365.47414054 139.70952468 365.48086548 143.34848022 C365.49441771 151.29937322 365.50046903 159.25026115 365.50487614 167.20116377 C365.50764456 172.1730367 365.51188307 177.1449077 365.51638031 182.11677933 C365.5285703 195.90248937 365.53886925 209.68819788 365.5422554 223.47391319 C365.54247497 224.35538748 365.54269453 225.23686177 365.54292075 226.1450474 C365.54313903 227.02854873 365.54335731 227.91205006 365.5435822 228.82232416 C365.54402566 230.61242509 365.54447222 232.40252602 365.54492188 234.19262695 C365.5451433 235.08056578 365.54536473 235.96850462 365.54559287 236.88335069 C365.54953595 251.25226025 365.56697619 265.62111894 365.5902814 279.99000888 C365.61405614 294.76865325 365.62646008 309.54727217 365.62762332 324.32593596 C365.62853679 332.61287116 365.63420582 340.89974011 365.65244293 349.18665695 C365.667927 356.24715257 365.67291594 363.30756149 365.66470483 370.36807089 C365.6608271 373.96324484 365.66158483 377.55824465 365.67576218 381.15339661 C365.81522729 418.73488537 358.95144458 452.78285199 332.04296875 480.69311523 C321.29922892 491.32957092 308.67400896 499.07992892 294.5546875 504.34155273 C293.79937744 504.62393799 293.04406738 504.90632324 292.26586914 505.19726562 C282.27094367 508.72342433 272.07420854 509.7524176 261.5546875 510.46655273 C260.50925781 510.54454102 259.46382813 510.6225293 258.38671875 510.70288086 C239.33633746 512.06041686 220.29352338 512.55461632 201.19921875 512.54931641 C198.99312281 512.55231948 196.78702738 512.55572458 194.58093262 512.55949402 C188.65837443 512.56822566 182.73583075 512.57066762 176.81326675 512.5713098 C173.0885936 512.57202699 169.36392398 512.57417384 165.63925171 512.57680702 C153.2450669 512.58555441 140.85088966 512.59023118 128.45670187 512.58947655 C127.46106413 512.58941661 127.46106413 512.58941661 126.4453125 512.58935547 C125.78070774 512.58931459 125.11610299 512.58927371 124.4313587 512.58923159 C114.37089233 512.58885186 104.3104572 512.59661675 94.25 512.60986328 C82.47209613 512.62531639 70.69421529 512.63361464 58.91630077 512.63290006 C52.71759131 512.63264867 46.51892188 512.63529533 40.32022095 512.64607811 C17.72893941 512.68255553 -4.83573699 512.67916938 -27.40234375 511.51464844 C-28.16947882 511.47576456 -28.93661388 511.43688069 -29.72699547 511.39681852 C-37.98000561 510.96405794 -46.19503965 510.31079626 -54.41210938 509.42497253 C-55.15524793 509.34607641 -55.89838648 509.26718028 -56.66404438 509.18589336 C-62.50027988 508.52306726 -67.87040897 507.27132556 -73.3828125 505.27905273 C-74.25583008 504.97483398 -75.12884766 504.67061523 -76.02832031 504.35717773 C-87.69739884 500.14655314 -98.2719315 494.54570949 -107.6953125 486.40405273 C-108.79746094 485.5165332 -108.79746094 485.5165332 -109.921875 484.61108398 C-132.4856634 465.80792699 -141.55895169 435.41054853 -145.6953125 407.40405273 C-145.86503948 406.27643367 -146.03476646 405.1488146 -146.20963669 403.98702526 C-146.88331198 398.52192288 -146.84012311 393.07324863 -146.83575439 387.57380676 C-146.83872552 386.39755806 -146.84169664 385.22130936 -146.8447578 384.00941676 C-146.85190596 380.76156952 -146.85461461 377.51375462 -146.85535526 374.26590073 C-146.85721458 370.75571681 -146.86476654 367.24554416 -146.87149048 363.73536682 C-146.8850419 356.06525523 -146.89109426 348.39514889 -146.89550114 340.72502732 C-146.89827042 335.92667103 -146.90250914 331.12831672 -146.90700531 326.32996178 C-146.91919655 313.02035683 -146.92949437 299.71075348 -146.9328804 286.40114307 C-146.93309997 285.55009958 -146.93331953 284.69905609 -146.93354575 283.82222341 C-146.93376403 282.96923794 -146.93398231 282.11625246 -146.9342072 281.23741895 C-146.93465065 279.50919076 -146.93509722 277.78096257 -146.93554688 276.05273438 C-146.9357683 275.19548862 -146.93598973 274.33824287 -146.93621787 273.45501997 C-146.94015829 259.59252528 -146.95758978 245.73008339 -146.9809064 231.86760906 C-147.00470348 217.60310577 -147.01708613 203.33862888 -147.01824832 189.07410544 C-147.0191607 181.07826751 -147.02480126 173.0824983 -147.04306793 165.08667946 C-147.05858255 158.27183998 -147.06352345 151.45709044 -147.05532983 144.64223663 C-147.05146229 141.17428032 -147.05215784 137.70650446 -147.06638718 134.23857117 C-147.20112806 94.64215075 -140.75999047 60.8754166 -112.6953125 31.40405273 C-82.98550351 2.05348 -39.33251284 -0.07417418 0 0 Z " fill="#F7634F" transform="translate(146.6953125,-0.404052734375)"/>
<path d="M0 0 C2.78083157 -0.00408588 5.56164621 -0.01259135 8.34246826 -0.02079773 C15.04579063 -0.03780141 21.74901853 -0.03886495 28.45235682 -0.03358483 C33.91065061 -0.02950814 39.36891694 -0.03102762 44.82720947 -0.03633308 C46.00193146 -0.03745572 46.00193146 -0.03745572 47.20038521 -0.03860103 C48.79238558 -0.04013283 50.38438595 -0.04167118 51.97638631 -0.043216 C66.83058187 -0.05687351 81.68472444 -0.05155047 96.53891873 -0.04003078 C110.06786577 -0.0300985 123.59667604 -0.04305108 137.12560201 -0.06696498 C151.09235158 -0.09146269 165.05903774 -0.10093823 179.02580833 -0.09431225 C186.83709064 -0.0908445 194.64826789 -0.09288863 202.45953369 -0.11056328 C209.10626427 -0.12541954 215.75281572 -0.12574802 222.39954329 -0.10849237 C225.77709304 -0.10008975 229.15406784 -0.09980705 232.5316391 -0.11314392 C269.78256309 -0.24885949 303.77386811 5.88304248 331.8359375 31.94702148 C353.62407016 53.63172946 365.33580075 84.60580259 365.4477551 115.2047199 C365.44688862 116.3364235 365.44602213 117.46812711 365.44512939 118.63412476 C365.44958608 120.46292614 365.44958608 120.46292614 365.4541328 122.32867301 C365.4612831 125.69633498 365.46398977 129.06394591 365.46473026 132.43161178 C365.46658899 136.07057367 365.47414054 139.70952468 365.48086548 143.34848022 C365.49441771 151.29937322 365.50046903 159.25026115 365.50487614 167.20116377 C365.50764456 172.1730367 365.51188307 177.1449077 365.51638031 182.11677933 C365.5285703 195.90248937 365.53886925 209.68819788 365.5422554 223.47391319 C365.54247497 224.35538748 365.54269453 225.23686177 365.54292075 226.1450474 C365.54313903 227.02854873 365.54335731 227.91205006 365.5435822 228.82232416 C365.54402566 230.61242509 365.54447222 232.40252602 365.54492188 234.19262695 C365.5451433 235.08056578 365.54536473 235.96850462 365.54559287 236.88335069 C365.54953595 251.25226025 365.56697619 265.62111894 365.5902814 279.99000888 C365.61405614 294.76865325 365.62646008 309.54727217 365.62762332 324.32593596 C365.62853679 332.61287116 365.63420582 340.89974011 365.65244293 349.18665695 C365.667927 356.24715257 365.67291594 363.30756149 365.66470483 370.36807089 C365.6608271 373.96324484 365.66158483 377.55824465 365.67576218 381.15339661 C365.81522729 418.73488537 358.95144458 452.78285199 332.04296875 480.69311523 C321.29922892 491.32957092 308.67400896 499.07992892 294.5546875 504.34155273 C293.79937744 504.62393799 293.04406738 504.90632324 292.26586914 505.19726562 C282.27094367 508.72342433 272.07420854 509.7524176 261.5546875 510.46655273 C260.50925781 510.54454102 259.46382813 510.6225293 258.38671875 510.70288086 C239.33633746 512.06041686 220.29352338 512.55461632 201.19921875 512.54931641 C198.99312281 512.55231948 196.78702738 512.55572458 194.58093262 512.55949402 C188.65837443 512.56822566 182.73583075 512.57066762 176.81326675 512.5713098 C173.0885936 512.57202699 169.36392398 512.57417384 165.63925171 512.57680702 C153.2450669 512.58555441 140.85088966 512.59023118 128.45670187 512.58947655 C127.46106413 512.58941661 127.46106413 512.58941661 126.4453125 512.58935547 C125.78070774 512.58931459 125.11610299 512.58927371 124.4313587 512.58923159 C114.37089233 512.58885186 104.3104572 512.59661675 94.25 512.60986328 C82.47209613 512.62531639 70.69421529 512.63361464 58.91630077 512.63290006 C52.71759131 512.63264867 46.51892188 512.63529533 40.32022095 512.64607811 C17.72893941 512.68255553 -4.83573699 512.67916938 -27.40234375 511.51464844 C-28.16947882 511.47576456 -28.93661388 511.43688069 -29.72699547 511.39681852 C-37.98000561 510.96405794 -46.19503965 510.31079626 -54.41210938 509.42497253 C-55.15524793 509.34607641 -55.89838648 509.26718028 -56.66404438 509.18589336 C-62.50027988 508.52306726 -67.87040897 507.27132556 -73.3828125 505.27905273 C-74.25583008 504.97483398 -75.12884766 504.67061523 -76.02832031 504.35717773 C-87.69739884 500.14655314 -98.2719315 494.54570949 -107.6953125 486.40405273 C-108.79746094 485.5165332 -108.79746094 485.5165332 -109.921875 484.61108398 C-132.4856634 465.80792699 -141.55895169 435.41054853 -145.6953125 407.40405273 C-145.86503948 406.27643367 -146.03476646 405.1488146 -146.20963669 403.98702526 C-146.88331198 398.52192288 -146.84012311 393.07324863 -146.83575439 387.57380676 C-146.83872552 386.39755806 -146.84169664 385.22130936 -146.8447578 384.00941676 C-146.85190596 380.76156952 -146.85461461 377.51375462 -146.85535526 374.26590073 C-146.85721458 370.75571681 -146.86476654 367.24554416 -146.87149048 363.73536682 C-146.8850419 356.06525523 -146.89109426 348.39514889 -146.89550114 340.72502732 C-146.89827042 335.92667103 -146.90250914 331.12831672 -146.90700531 326.32996178 C-146.91919655 313.02035683 -146.92949437 299.71075348 -146.9328804 286.40114307 C-146.93309997 285.55009958 -146.93331953 284.69905609 -146.93354575 283.82222341 C-146.93376403 282.96923794 -146.93398231 282.11625246 -146.9342072 281.23741895 C-146.93465065 279.50919076 -146.93509722 277.78096257 -146.93554688 276.05273438 C-146.9357683 275.19548862 -146.93598973 274.33824287 -146.93621787 273.45501997 C-146.94015829 259.59252528 -146.95758978 245.73008339 -146.9809064 231.86760906 C-147.00470348 217.60310577 -147.01708613 203.33862888 -147.01824832 189.07410544 C-147.0191607 181.07826751 -147.02480126 173.0824983 -147.04306793 165.08667946 C-147.05858255 158.27183998 -147.06352345 151.45709044 -147.05532983 144.64223663 C-147.05146229 141.17428032 -147.05215784 137.70650446 -147.06638718 134.23857117 C-147.20112806 94.64215075 -140.75999047 60.8754166 -112.6953125 31.40405273 C-82.98550351 2.05348 -39.33251284 -0.07417418 0 0 Z M33.32641602 67.83740234 C32.51619617 67.87445471 31.70597633 67.91150707 30.87120438 67.94968224 C23.28831107 68.35801892 15.9320669 69.56294292 8.4921875 71.09155273 C7.50309387 71.28938354 7.50309387 71.28938354 6.49401855 71.49121094 C-3.66653984 73.5320147 -13.29211463 75.97627679 -22.6953125 80.40405273 C-23.66339844 80.85264648 -24.63148437 81.30124023 -25.62890625 81.76342773 C-33.35420813 85.66443124 -40.04878814 90.91690879 -46.6953125 96.40405273 C-47.36433594 96.95577148 -48.03335938 97.50749023 -48.72265625 98.07592773 C-60.7481646 109.05450948 -69.58738607 126.84133145 -73.6953125 142.40405273 C-73.93765625 143.32057617 -74.18 144.23709961 -74.4296875 145.18139648 C-79.68217139 167.29006593 -80.14815893 189.7958295 -80.06535745 212.39533043 C-80.0537833 216.31396744 -80.05816995 220.23259585 -80.06010437 224.15124512 C-80.06097936 230.72335147 -80.05007605 237.29535312 -80.03149414 243.86743164 C-80.01033902 251.39115205 -80.00682162 258.91471954 -80.0130561 266.43846369 C-80.01881452 273.77206024 -80.01302891 281.1056047 -80.00188255 288.43919373 C-79.99732124 291.51664729 -79.99632481 294.5940681 -79.9984684 297.67152405 C-80.01571503 339.5424383 -79.10605058 381.55162887 -49.14453125 413.95483398 C-21.3168045 441.78256073 18.52327722 445.75212865 55.97313952 445.79639536 C59.03776718 445.79482837 62.10233826 445.78492755 65.16694546 445.77409768 C69.21605264 445.76255233 73.26515104 445.76690786 77.31427002 445.7688446 C84.10164593 445.76972005 90.88892054 445.75880292 97.67626953 445.74023438 C105.46534043 445.71904414 113.2542637 445.7155688 121.04335761 445.72179633 C128.6177738 445.72753648 136.19213929 445.72179226 143.76654816 445.71062279 C146.95419526 445.70604134 150.1418107 445.70507426 153.32946014 445.70720863 C193.71415069 445.723121 236.84761483 443.50626553 267.71777344 413.99829102 C295.90969017 385.67625774 298.71812042 342.11829297 298.69587708 304.48861694 C298.69039938 302.33163752 298.68290898 300.17467432 298.67473245 298.01770353 C298.66312634 294.21652591 298.66754714 290.4153566 298.66947937 286.61416626 C298.67035319 280.24232494 298.65947451 273.87059185 298.64086914 267.4987793 C298.61969753 260.20791106 298.61620122 252.91720063 298.6224311 245.62630785 C298.62819133 238.51162032 298.62240301 231.39698645 298.61125755 224.28230667 C298.60670042 221.29974974 298.60569783 218.31722659 298.6078434 215.33466721 C298.6136798 201.41314416 298.51038811 187.52861051 297.42651367 173.64086914 C297.35129895 172.67407919 297.27608423 171.70728924 297.19859028 170.71120262 C294.41194594 139.2537144 283.02884577 112.32391683 258.9296875 91.59155273 C240.25012083 77.112907 218.36755142 70.78829702 195.05688477 68.66601562 C192.85540256 68.45647155 190.65973596 68.18616012 188.467453 67.89576721 C182.29954334 67.2126288 176.14732843 67.26441506 169.94824219 67.2746582 C168.63466736 67.27290588 167.32109253 67.27115356 165.9677124 67.26934814 C162.38429549 67.26481371 158.80090758 67.26654831 155.2174902 67.26972723 C151.43969081 67.27227788 147.66189373 67.26990522 143.88409424 67.26834106 C137.52917034 67.26652455 131.17425807 67.26890929 124.81933594 67.27368164 C117.52766245 67.27909511 110.23601706 67.27738085 102.94434428 67.27185524 C96.64324735 67.26727544 90.34215875 67.2666979 84.04106069 67.2692939 C80.2963587 67.27083384 76.55166977 67.27111516 72.80696869 67.26775742 C53.0612432 67.24439615 53.0612432 67.24439615 33.32641602 67.83740234 Z " fill="#F16E5E" transform="translate(146.6953125,-0.404052734375)"/>
<path d="M0 0 C2.21796392 -0.00297467 4.43592317 -0.00708627 6.65388465 -0.01150417 C13.64735539 -0.02509656 20.6408149 -0.03480614 27.63429791 -0.03870606 C35.60922316 -0.04318301 43.58397672 -0.06074934 51.55884987 -0.08970666 C57.79399505 -0.11153477 64.02909263 -0.12142125 70.26427549 -0.12274718 C73.95697915 -0.12377918 77.64951972 -0.12933483 81.34218192 -0.1475668 C105.85808602 -0.26166686 130.8644148 0.49403234 154.29487014 8.45018864 C155.21268264 8.76173893 156.13049514 9.07328922 157.07612014 9.39428043 C181.98523162 18.07399124 200.48214867 36.47885561 212.0458467 59.91649723 C222.74271939 82.83294839 223.93323403 109.52568711 223.95600295 134.41796207 C223.96065068 135.76551283 223.96567782 137.11306232 223.97104812 138.46061039 C223.983991 142.07505572 223.99058163 145.68948265 223.99505877 149.30394745 C223.99802069 151.57919072 224.00213089 153.8544293 224.00656295 156.12967014 C224.0201936 163.29776471 224.02988037 170.46584815 224.03376484 177.63395476 C224.03822726 185.81606058 224.05570911 193.99799784 224.08476543 202.18005252 C224.10662781 208.56544077 224.11648206 214.95078248 224.11780596 221.33620763 C224.11883717 225.12131532 224.12437256 228.90626376 224.14262557 232.69133091 C224.32793289 273.4633137 222.05924925 316.57346353 192.38910842 347.61327457 C172.98659392 366.92665041 145.29575562 374.33401587 118.79487014 377.20018864 C118.02240195 377.28724001 117.24993377 377.37429138 116.45405746 377.46398067 C108.645412 378.26689454 100.88616476 378.34203153 93.04291701 378.32958317 C91.59118012 378.3309413 90.13944357 378.33272354 88.68770766 378.33489323 C84.77657946 378.33941853 80.86547789 378.33769833 76.95434928 378.33451414 C72.84222893 378.33196504 68.73011071 378.33433514 64.61799026 378.33590031 C57.71519479 378.33771459 50.81241006 378.33533516 43.90961623 378.33055973 C35.95309932 378.32511854 27.99660804 378.32688172 20.04009175 378.33238614 C13.18285236 378.33693841 6.32562063 378.33755749 -0.53161979 378.33494747 C-4.61579233 378.3333963 -8.69995286 378.33315888 -12.78412461 378.33648396 C-16.62554765 378.33939349 -20.46693794 378.33733087 -24.30835748 378.3315897 C-25.70989578 378.33027853 -27.11143688 378.33062792 -28.51297402 378.33285236 C-63.62088769 378.38339451 -98.26165228 370.87962141 -124.45512986 346.38768864 C-139.74187749 330.29806561 -147.65148306 309.96683833 -151.39262986 288.45018864 C-151.55988572 287.49886051 -151.72714158 286.54753239 -151.8994658 285.56737614 C-155.04616206 266.20708412 -154.3997007 246.42945188 -154.44341111 226.87596989 C-154.44747225 225.31365984 -154.45158949 223.75134994 -154.45576119 222.18904018 C-154.47474002 214.83674143 -154.48898359 207.48445221 -154.49737316 200.13213378 C-154.50710555 191.75023933 -154.53335101 183.36861173 -154.57387406 174.98681098 C-154.60440677 168.43828099 -154.61887667 161.88982586 -154.62215418 155.34122628 C-154.62446348 151.46265879 -154.63286504 147.58437838 -154.65861535 143.7058897 C-154.90792801 104.10610048 -152.2026246 61.71866584 -123.50200486 31.43456364 C-107.26694683 15.64127589 -87.85125283 8.27006219 -66.01762986 3.88768864 C-64.15860032 3.50556217 -64.15860032 3.50556217 -62.26201463 3.11571598 C-55.21599842 1.78309099 -48.30511919 0.96196049 -41.15044236 0.63793278 C-40.25518499 0.59686279 -39.35992763 0.55579281 -38.43754125 0.51347828 C-25.6320058 -0.0125611 -12.81421312 0.01638023 0 0 Z M-100.20512986 56.20018864 C-123.07378943 83.40138723 -120.34907683 128.93991463 -120.40825486 162.46581364 C-120.41108224 163.56462612 -120.41390962 164.66343861 -120.41682267 165.79554844 C-120.43173039 171.62720818 -120.44100918 177.45884379 -120.44536424 183.29052067 C-120.4497209 188.02790491 -120.46351527 192.76510415 -120.48637986 197.50243473 C-120.67951897 231.09364784 -120.67951897 231.09364784 -118.87700486 264.62206364 C-118.81852624 265.32844219 -118.76004762 266.03482075 -118.69979692 266.76260471 C-116.94116232 287.24518995 -113.61701025 310.77685652 -97.58794236 325.39159489 C-89.74793212 331.34229119 -81.64460855 335.69119148 -71.92387986 337.62987614 C-69.20512986 338.20018864 -69.20512986 338.20018864 -66.47856736 339.18480778 C-62.96723349 340.27398122 -59.77106065 340.69011386 -56.11137986 341.01659489 C-55.44279954 341.07798145 -54.77421922 341.13936802 -54.08537889 341.20261478 C-51.95917075 341.39602306 -49.83222949 341.57937643 -47.70512986 341.76268864 C-46.30923947 341.88901283 -44.91340543 342.01596132 -43.51762986 342.14354801 C-39.41481508 342.51336824 -35.31158475 342.87302778 -31.20512986 343.20018864 C-30.20151445 343.28201735 -29.19789905 343.36384607 -28.16387105 343.44815445 C-20.19260646 344.06260851 -12.28405525 344.35322947 -4.29082322 344.36132145 C-3.08380754 344.36628635 -1.87679185 344.37125126 -0.63319993 344.37636662 C2.63381163 344.38833992 5.90078773 344.39589717 9.16781712 344.40037727 C11.22273318 344.40333916 13.27764405 344.40744921 15.33255744 344.41188145 C21.80225476 344.42550523 28.27193976 344.435197 34.7416504 344.43908334 C42.13541682 344.44355309 49.52899737 344.46107223 56.92270738 344.49008393 C62.6888789 344.51190133 68.4549989 344.52179814 74.22121114 344.52312446 C77.64173768 344.5241582 81.06208842 344.52975202 84.48257041 344.54794407 C113.42149194 344.67893194 146.2970068 343.98871964 168.51362014 322.63768864 C184.54546854 305.50776843 188.30124313 283.28175229 189.54487014 260.70018864 C189.60524459 259.67558537 189.66561904 258.65098209 189.72782302 257.59533024 C191.11666735 233.13645477 191.08900103 208.6374253 191.10494399 184.14693546 C191.10735107 180.97530873 191.11268245 177.803696 191.1182344 174.6320734 C191.37386693 136.43990591 191.37386693 136.43990591 186.48237014 98.63768864 C186.26508254 97.54835026 186.04779494 96.45901188 185.82392287 95.33666325 C181.95078569 76.64650827 175.08112221 58.6439288 158.73237014 47.45018864 C134.80739254 33.48299704 106.76748087 33.57289799 79.83392477 33.69581819 C75.93050968 33.71000467 72.02711358 33.70317122 68.12368178 33.6996851 C61.57430392 33.6970078 55.02511189 33.71023812 48.47577834 33.7336359 C40.99126105 33.76019605 33.50705444 33.76199389 26.02250618 33.75024754 C18.71506509 33.73932248 11.40773224 33.74577232 4.1002996 33.75980282 C1.04009043 33.76544032 -2.02003627 33.76558001 -5.08024621 33.76073742 C-56.81829655 32.46262957 -56.81829655 32.46262957 -100.20512986 56.20018864 Z " fill="#FEFEFD" transform="translate(221.20512986183167,66.79981136322021)"/>
<path d="M0 0 C19.86426285 16.07717201 33.69470595 38.38863007 37.14306641 63.99804688 C40.16623564 92.81517144 32.13772128 118.7251576 14.0390625 141.14453125 C-1.53103802 159.16244336 -23.99557349 171.09837343 -47.62109375 174.24609375 C-51.5430576 174.5244117 -55.44017044 174.58090138 -59.37109375 174.55859375 C-60.42095459 174.5529541 -61.47081543 174.54731445 -62.55249023 174.54150391 C-84.37881325 174.20238251 -104.92205672 166.39388901 -121.62109375 152.24609375 C-122.44609375 151.55515625 -123.27109375 150.86421875 -124.12109375 150.15234375 C-142.37273336 134.34909482 -154.39528042 111.39513787 -156.62109375 87.24609375 C-158.42273895 58.63961422 -150.73399032 33.80582463 -132.06347656 11.87695312 C-98.77854251 -25.7573325 -39.56377908 -30.75304697 0 0 Z " fill="#FEFDFD" transform="translate(315.62109375,178.75390625)"/>
<path d="M0 0 C11.64631823 9.82727424 19.80485019 24.31056081 21.28540039 39.56567383 C21.40011797 42.57137362 21.41741375 45.55497976 21.375 48.5625 C21.36339844 49.62082031 21.35179687 50.67914063 21.33984375 51.76953125 C20.99112999 68.38471616 15.28599146 84.37563868 3.48046875 96.4453125 C-3.77317633 102.81938172 -11.76196167 107.75698156 -21 110.625 C-21.70640625 110.84929687 -22.4128125 111.07359375 -23.140625 111.3046875 C-39.53443064 115.48912041 -58.36614692 113.27648644 -73.15234375 105.34765625 C-87.79010603 96.49271363 -97.97101963 83.04360989 -102.17578125 66.3984375 C-103.29657484 60.89001837 -103.34342967 55.41695678 -103.3125 49.8125 C-103.30686035 48.74805664 -103.3012207 47.68361328 -103.29541016 46.58691406 C-103.01606528 28.54842612 -96.44605212 14.84315163 -84.203125 1.6953125 C-61.35995015 -20.2692787 -24.22724818 -17.61601293 0 0 Z " fill="#FC5944" transform="translate(297,206.375)"/>
<path d="M0 0 C6.1051702 2.77939655 11.03842782 8.11075394 13.5078125 14.3515625 C14.37047543 21.93497147 14.37242148 29.17256056 9.5078125 35.3515625 C4.1980697 40.93843175 -0.3834191 44.30406913 -8.1796875 44.7890625 C-14.91154889 44.61850863 -20.65211162 42.26205348 -25.3828125 37.4140625 C-29.95583874 31.55348518 -32.05288542 26.52675694 -31.86328125 19.04296875 C-30.92069816 12.20676089 -27.75856169 6.95149107 -22.3046875 2.7890625 C-15.62345631 -1.72044918 -7.83265391 -2.03796324 0 0 Z " fill="#FEFCFD" transform="translate(365.4921875,133.6484375)"/>
</svg>
